<svg width="171" height="72" viewBox="0 0 171 72" fill="none" xmlns="http://www.w3.org/2000/svg">
<path d="M25.956 20.728L16.992 46H9.288L0.324 20.728H6.876L13.14 39.808L19.44 20.728H25.956ZM31.6249 23.824C30.5449 23.824 29.6569 23.512 28.9609 22.888C28.2889 22.24 27.9529 21.448 27.9529 20.512C27.9529 19.552 28.2889 18.76 28.9609 18.136C29.6569 17.488 30.5449 17.164 31.6249 17.164C32.6809 17.164 33.5449 17.488 34.2169 18.136C34.9129 18.76 35.2609 19.552 35.2609 20.512C35.2609 21.448 34.9129 22.24 34.2169 22.888C33.5449 23.512 32.6809 23.824 31.6249 23.824ZM34.6849 25.912V46H28.5289V25.912H34.6849ZM58.9821 25.912V46H52.8261V43.264C52.2021 44.152 51.3501 44.872 50.2701 45.424C49.2141 45.952 48.0381 46.216 46.7421 46.216C45.2061 46.216 43.8501 45.88 42.6741 45.208C41.4981 44.512 40.5861 43.516 39.9381 42.22C39.2901 40.924 38.9661 39.4 38.9661 37.648V25.912H45.0861V36.82C45.0861 38.164 45.4341 39.208 46.1301 39.952C46.8261 40.696 47.7621 41.068 48.9381 41.068C50.1381 41.068 51.0861 40.696 51.7821 39.952C52.4781 39.208 52.8261 38.164 52.8261 36.82V25.912H58.9821Z" fill="#E42329"/>
<path d="M77.12 46L71.864 36.46H70.388V46H64.232V20.728H74.564C76.556 20.728 78.248 21.076 79.64 21.772C81.056 22.468 82.112 23.428 82.808 24.652C83.504 25.852 83.852 27.196 83.852 28.684C83.852 30.364 83.372 31.864 82.412 33.184C81.476 34.504 80.084 35.44 78.236 35.992L84.068 46H77.12ZM70.388 32.104H74.204C75.332 32.104 76.172 31.828 76.724 31.276C77.3 30.724 77.588 29.944 77.588 28.936C77.588 27.976 77.3 27.22 76.724 26.668C76.172 26.116 75.332 25.84 74.204 25.84H70.388V32.104ZM96.8604 46.288C94.8924 46.288 93.1164 45.868 91.5324 45.028C89.9724 44.188 88.7364 42.988 87.8244 41.428C86.9364 39.868 86.4924 38.044 86.4924 35.956C86.4924 33.892 86.9484 32.08 87.8604 30.52C88.7724 28.936 90.0204 27.724 91.6044 26.884C93.1884 26.044 94.9644 25.624 96.9324 25.624C98.9004 25.624 100.676 26.044 102.26 26.884C103.844 27.724 105.092 28.936 106.004 30.52C106.916 32.08 107.372 33.892 107.372 35.956C107.372 38.02 106.904 39.844 105.968 41.428C105.056 42.988 103.796 44.188 102.188 45.028C100.604 45.868 98.8284 46.288 96.8604 46.288ZM96.8604 40.96C98.0364 40.96 99.0324 40.528 99.8484 39.664C100.688 38.8 101.108 37.564 101.108 35.956C101.108 34.348 100.7 33.112 99.8844 32.248C99.0924 31.384 98.1084 30.952 96.9324 30.952C95.7324 30.952 94.7364 31.384 93.9444 32.248C93.1524 33.088 92.7564 34.324 92.7564 35.956C92.7564 37.564 93.1404 38.8 93.9084 39.664C94.7004 40.528 95.6844 40.96 96.8604 40.96ZM109.414 35.92C109.414 33.856 109.798 32.044 110.566 30.484C111.358 28.924 112.426 27.724 113.77 26.884C115.114 26.044 116.614 25.624 118.27 25.624C119.686 25.624 120.922 25.912 121.978 26.488C123.058 27.064 123.886 27.82 124.462 28.756V25.912H130.618V46H124.462V43.156C123.862 44.092 123.022 44.848 121.942 45.424C120.886 46 119.65 46.288 118.234 46.288C116.602 46.288 115.114 45.868 113.77 45.028C112.426 44.164 111.358 42.952 110.566 41.392C109.798 39.808 109.414 37.984 109.414 35.92ZM124.462 35.956C124.462 34.42 124.03 33.208 123.166 32.32C122.326 31.432 121.294 30.988 120.07 30.988C118.846 30.988 117.802 31.432 116.938 32.32C116.098 33.184 115.678 34.384 115.678 35.92C115.678 37.456 116.098 38.68 116.938 39.592C117.802 40.48 118.846 40.924 120.07 40.924C121.294 40.924 122.326 40.48 123.166 39.592C124.03 38.704 124.462 37.492 124.462 35.956ZM160.704 25.696C163.2 25.696 165.18 26.452 166.644 27.964C168.132 29.476 168.876 31.576 168.876 34.264V46H162.756V35.092C162.756 33.796 162.408 32.8 161.712 32.104C161.04 31.384 160.104 31.024 158.904 31.024C157.704 31.024 156.756 31.384 156.06 32.104C155.388 32.8 155.052 33.796 155.052 35.092V46H148.932V35.092C148.932 33.796 148.584 32.8 147.888 32.104C147.216 31.384 146.28 31.024 145.08 31.024C143.88 31.024 142.932 31.384 142.236 32.104C141.564 32.8 141.228 33.796 141.228 35.092V46H135.072V25.912H141.228V28.432C141.852 27.592 142.668 26.932 143.676 26.452C144.684 25.948 145.824 25.696 147.096 25.696C148.608 25.696 149.952 26.02 151.128 26.668C152.328 27.316 153.264 28.24 153.936 29.44C154.632 28.336 155.58 27.436 156.78 26.74C157.98 26.044 159.288 25.696 160.704 25.696Z" fill="black"/>
<path d="M9.02 52.54C9.908 52.54 10.684 52.72 11.348 53.08C12.02 53.432 12.536 53.928 12.896 54.568C13.256 55.208 13.436 55.94 13.436 56.764C13.436 57.58 13.252 58.308 12.884 58.948C12.524 59.588 12.008 60.092 11.336 60.46C10.672 60.82 9.9 61 9.02 61H5.672V52.54H9.02ZM8.84 58.924C9.528 58.924 10.068 58.736 10.46 58.36C10.852 57.984 11.048 57.452 11.048 56.764C11.048 56.068 10.852 55.532 10.46 55.156C10.068 54.772 9.528 54.58 8.84 54.58H8.024V58.924H8.84ZM16.8482 55.456C17.1122 55.072 17.4322 54.768 17.8082 54.544C18.1842 54.32 18.5882 54.208 19.0202 54.208V56.716H18.3602C17.8482 56.716 17.4682 56.816 17.2202 57.016C16.9722 57.216 16.8482 57.564 16.8482 58.06V61H14.4962V54.268H16.8482V55.456ZM26.2954 57.556C26.2954 57.74 26.2834 57.924 26.2594 58.108H21.8074C21.8314 58.476 21.9314 58.752 22.1074 58.936C22.2914 59.112 22.5234 59.2 22.8034 59.2C23.1954 59.2 23.4754 59.024 23.6434 58.672H26.1514C26.0474 59.136 25.8434 59.552 25.5394 59.92C25.2434 60.28 24.8674 60.564 24.4114 60.772C23.9554 60.98 23.4514 61.084 22.8994 61.084C22.2354 61.084 21.6434 60.944 21.1234 60.664C20.6114 60.384 20.2074 59.984 19.9114 59.464C19.6234 58.944 19.4794 58.332 19.4794 57.628C19.4794 56.924 19.6234 56.316 19.9114 55.804C20.1994 55.284 20.5994 54.884 21.1114 54.604C21.6314 54.324 22.2274 54.184 22.8994 54.184C23.5634 54.184 24.1514 54.32 24.6634 54.592C25.1754 54.864 25.5754 55.256 25.8634 55.768C26.1514 56.272 26.2954 56.868 26.2954 57.556ZM23.8954 56.968C23.8954 56.68 23.7994 56.456 23.6074 56.296C23.4154 56.128 23.1754 56.044 22.8874 56.044C22.5994 56.044 22.3634 56.124 22.1794 56.284C21.9954 56.436 21.8754 56.664 21.8194 56.968H23.8954ZM26.8739 57.628C26.8739 56.932 26.9979 56.324 27.2459 55.804C27.5019 55.284 27.8459 54.884 28.2779 54.604C28.7179 54.324 29.2059 54.184 29.7419 54.184C30.2059 54.184 30.6059 54.276 30.9419 54.46C31.2779 54.644 31.5379 54.892 31.7219 55.204V54.268H34.0739V61H31.7219V60.064C31.5379 60.376 31.2739 60.624 30.9299 60.808C30.5939 60.992 30.1979 61.084 29.7419 61.084C29.2059 61.084 28.7179 60.944 28.2779 60.664C27.8459 60.384 27.5019 59.984 27.2459 59.464C26.9979 58.936 26.8739 58.324 26.8739 57.628ZM31.7219 57.628C31.7219 57.196 31.6019 56.856 31.3619 56.608C31.1299 56.36 30.8419 56.236 30.4979 56.236C30.1459 56.236 29.8539 56.36 29.6219 56.608C29.3899 56.848 29.2739 57.188 29.2739 57.628C29.2739 58.06 29.3899 58.404 29.6219 58.66C29.8539 58.908 30.1459 59.032 30.4979 59.032C30.8419 59.032 31.1299 58.908 31.3619 58.66C31.6019 58.412 31.7219 58.068 31.7219 57.628ZM44.2102 54.208C45.0582 54.208 45.7222 54.464 46.2022 54.976C46.6902 55.488 46.9342 56.188 46.9342 57.076V61H44.5822V57.388C44.5822 57.028 44.4822 56.748 44.2822 56.548C44.0822 56.348 43.8102 56.248 43.4662 56.248C43.1222 56.248 42.8502 56.348 42.6502 56.548C42.4502 56.748 42.3502 57.028 42.3502 57.388V61H39.9982V57.388C39.9982 57.028 39.8982 56.748 39.6982 56.548C39.5062 56.348 39.2382 56.248 38.8942 56.248C38.5422 56.248 38.2662 56.348 38.0662 56.548C37.8662 56.748 37.7662 57.028 37.7662 57.388V61H35.4142V54.268H37.7662V55.156C37.9742 54.868 38.2422 54.64 38.5702 54.472C38.9062 54.296 39.2902 54.208 39.7222 54.208C40.2182 54.208 40.6582 54.316 41.0422 54.532C41.4342 54.748 41.7422 55.052 41.9662 55.444C42.2062 55.076 42.5222 54.78 42.9142 54.556C43.3062 54.324 43.7382 54.208 44.2102 54.208ZM49.3628 61.096C48.9468 61.096 48.6108 60.984 48.3548 60.76C48.1068 60.528 47.9828 60.236 47.9828 59.884C47.9828 59.532 48.1068 59.24 48.3548 59.008C48.6108 58.776 48.9468 58.66 49.3628 58.66C49.7708 58.66 50.0988 58.776 50.3468 59.008C50.6028 59.24 50.7308 59.532 50.7308 59.884C50.7308 60.228 50.6028 60.516 50.3468 60.748C50.0988 60.98 49.7708 61.096 49.3628 61.096Z" fill="black"/>
<path d="M60.024 54.424V55.804H62.724V57.592H60.024V59.116H63.084V61H57.672V52.54H63.084V54.424H60.024ZM68.4462 61L67.2342 59.308L66.2742 61H63.6942L65.9382 57.508L63.5982 54.268H66.2382L67.4502 55.96L68.4222 54.268H71.0022L68.7102 57.7L71.0862 61H68.4462ZM74.1334 55.204C74.3174 54.892 74.5774 54.644 74.9134 54.46C75.2494 54.276 75.6454 54.184 76.1014 54.184C76.6374 54.184 77.1214 54.324 77.5534 54.604C77.9934 54.884 78.3374 55.284 78.5854 55.804C78.8414 56.324 78.9694 56.932 78.9694 57.628C78.9694 58.324 78.8414 58.936 78.5854 59.464C78.3374 59.984 77.9934 60.384 77.5534 60.664C77.1214 60.944 76.6374 61.084 76.1014 61.084C75.6454 61.084 75.2494 60.992 74.9134 60.808C74.5854 60.624 74.3254 60.376 74.1334 60.064V64.216H71.7814V54.268H74.1334V55.204ZM76.5814 57.628C76.5814 57.188 76.4614 56.848 76.2214 56.608C75.9894 56.36 75.7014 56.236 75.3574 56.236C75.0134 56.236 74.7214 56.36 74.4814 56.608C74.2494 56.856 74.1334 57.196 74.1334 57.628C74.1334 58.068 74.2494 58.412 74.4814 58.66C74.7214 58.908 75.0134 59.032 75.3574 59.032C75.7014 59.032 75.9894 58.908 76.2214 58.66C76.4614 58.404 76.5814 58.06 76.5814 57.628ZM82.2896 52.12V61H79.9376V52.12H82.2896ZM86.761 61.084C86.089 61.084 85.485 60.944 84.949 60.664C84.421 60.384 84.005 59.984 83.701 59.464C83.397 58.944 83.245 58.332 83.245 57.628C83.245 56.932 83.397 56.324 83.701 55.804C84.013 55.284 84.433 54.884 84.961 54.604C85.497 54.324 86.101 54.184 86.773 54.184C87.445 54.184 88.045 54.324 88.573 54.604C89.109 54.884 89.529 55.284 89.833 55.804C90.145 56.324 90.301 56.932 90.301 57.628C90.301 58.324 90.145 58.936 89.833 59.464C89.529 59.984 89.109 60.384 88.573 60.664C88.037 60.944 87.433 61.084 86.761 61.084ZM86.761 59.044C87.089 59.044 87.361 58.924 87.577 58.684C87.801 58.436 87.913 58.084 87.913 57.628C87.913 57.172 87.801 56.824 87.577 56.584C87.361 56.344 87.093 56.224 86.773 56.224C86.453 56.224 86.185 56.344 85.969 56.584C85.753 56.824 85.645 57.172 85.645 57.628C85.645 58.092 85.749 58.444 85.957 58.684C86.165 58.924 86.433 59.044 86.761 59.044ZM93.6099 55.456C93.8739 55.072 94.1939 54.768 94.5699 54.544C94.9459 54.32 95.3499 54.208 95.7819 54.208V56.716H95.1219C94.6099 56.716 94.2299 56.816 93.9819 57.016C93.7339 57.216 93.6099 57.564 93.6099 58.06V61H91.2579V54.268H93.6099V55.456ZM103.057 57.556C103.057 57.74 103.045 57.924 103.021 58.108H98.5691C98.5931 58.476 98.6931 58.752 98.8691 58.936C99.0531 59.112 99.2851 59.2 99.5651 59.2C99.9571 59.2 100.237 59.024 100.405 58.672H102.913C102.809 59.136 102.605 59.552 102.301 59.92C102.005 60.28 101.629 60.564 101.173 60.772C100.717 60.98 100.213 61.084 99.6611 61.084C98.9971 61.084 98.4051 60.944 97.8851 60.664C97.3731 60.384 96.9691 59.984 96.6731 59.464C96.3851 58.944 96.2411 58.332 96.2411 57.628C96.2411 56.924 96.3851 56.316 96.6731 55.804C96.9611 55.284 97.3611 54.884 97.8731 54.604C98.3931 54.324 98.9891 54.184 99.6611 54.184C100.325 54.184 100.913 54.32 101.425 54.592C101.937 54.864 102.337 55.256 102.625 55.768C102.913 56.272 103.057 56.868 103.057 57.556ZM100.657 56.968C100.657 56.68 100.561 56.456 100.369 56.296C100.177 56.128 99.9371 56.044 99.6491 56.044C99.3611 56.044 99.1251 56.124 98.9411 56.284C98.7571 56.436 98.6371 56.664 98.5811 56.968H100.657ZM105.16 61.096C104.744 61.096 104.408 60.984 104.152 60.76C103.904 60.528 103.78 60.236 103.78 59.884C103.78 59.532 103.904 59.24 104.152 59.008C104.408 58.776 104.744 58.66 105.16 58.66C105.568 58.66 105.896 58.776 106.144 59.008C106.4 59.24 106.528 59.532 106.528 59.884C106.528 60.228 106.4 60.516 106.144 60.748C105.896 60.98 105.568 61.096 105.16 61.096Z" fill="black"/>
<path d="M116.02 52.54C116.908 52.54 117.684 52.72 118.348 53.08C119.02 53.432 119.536 53.928 119.896 54.568C120.256 55.208 120.436 55.94 120.436 56.764C120.436 57.58 120.252 58.308 119.884 58.948C119.524 59.588 119.008 60.092 118.336 60.46C117.672 60.82 116.9 61 116.02 61H112.672V52.54H116.02ZM115.84 58.924C116.528 58.924 117.068 58.736 117.46 58.36C117.852 57.984 118.048 57.452 118.048 56.764C118.048 56.068 117.852 55.532 117.46 55.156C117.068 54.772 116.528 54.58 115.84 54.58H115.024V58.924H115.84ZM122.684 53.644C122.268 53.644 121.932 53.532 121.676 53.308C121.428 53.076 121.304 52.788 121.304 52.444C121.304 52.092 121.428 51.8 121.676 51.568C121.932 51.336 122.268 51.22 122.684 51.22C123.092 51.22 123.42 51.336 123.668 51.568C123.924 51.8 124.052 52.092 124.052 52.444C124.052 52.788 123.924 53.076 123.668 53.308C123.42 53.532 123.092 53.644 122.684 53.644ZM123.848 54.268V61H121.496V54.268H123.848ZM128.056 61.084C127.448 61.084 126.904 60.984 126.424 60.784C125.952 60.576 125.576 60.296 125.296 59.944C125.024 59.584 124.872 59.18 124.84 58.732H127.12C127.152 58.948 127.252 59.116 127.42 59.236C127.588 59.356 127.796 59.416 128.044 59.416C128.236 59.416 128.388 59.376 128.5 59.296C128.612 59.216 128.668 59.112 128.668 58.984C128.668 58.816 128.576 58.692 128.392 58.612C128.208 58.532 127.904 58.444 127.48 58.348C127 58.252 126.6 58.144 126.28 58.024C125.96 57.904 125.68 57.708 125.44 57.436C125.208 57.164 125.092 56.796 125.092 56.332C125.092 55.932 125.2 55.572 125.416 55.252C125.632 54.924 125.948 54.664 126.364 54.472C126.788 54.28 127.296 54.184 127.888 54.184C128.768 54.184 129.46 54.4 129.964 54.832C130.468 55.264 130.76 55.832 130.84 56.536H128.716C128.676 56.32 128.58 56.156 128.428 56.044C128.284 55.924 128.088 55.864 127.84 55.864C127.648 55.864 127.5 55.9 127.396 55.972C127.3 56.044 127.252 56.144 127.252 56.272C127.252 56.432 127.344 56.556 127.528 56.644C127.712 56.724 128.008 56.808 128.416 56.896C128.904 57 129.308 57.116 129.628 57.244C129.956 57.372 130.24 57.58 130.48 57.868C130.728 58.148 130.852 58.532 130.852 59.02C130.852 59.412 130.736 59.764 130.504 60.076C130.28 60.388 129.956 60.636 129.532 60.82C129.116 60.996 128.624 61.084 128.056 61.084ZM131.624 57.628C131.624 56.932 131.768 56.324 132.056 55.804C132.344 55.284 132.744 54.884 133.256 54.604C133.776 54.324 134.368 54.184 135.032 54.184C135.888 54.184 136.608 54.42 137.192 54.892C137.776 55.356 138.152 56.008 138.32 56.848H135.824C135.68 56.408 135.4 56.188 134.984 56.188C134.688 56.188 134.452 56.312 134.276 56.56C134.108 56.8 134.024 57.156 134.024 57.628C134.024 58.1 134.108 58.46 134.276 58.708C134.452 58.956 134.688 59.08 134.984 59.08C135.408 59.08 135.688 58.86 135.824 58.42H138.32C138.152 59.252 137.776 59.904 137.192 60.376C136.608 60.848 135.888 61.084 135.032 61.084C134.368 61.084 133.776 60.944 133.256 60.664C132.744 60.384 132.344 59.984 132.056 59.464C131.768 58.944 131.624 58.332 131.624 57.628ZM142.429 61.084C141.757 61.084 141.153 60.944 140.617 60.664C140.089 60.384 139.673 59.984 139.369 59.464C139.065 58.944 138.913 58.332 138.913 57.628C138.913 56.932 139.065 56.324 139.369 55.804C139.681 55.284 140.101 54.884 140.629 54.604C141.165 54.324 141.769 54.184 142.441 54.184C143.113 54.184 143.713 54.324 144.241 54.604C144.777 54.884 145.197 55.284 145.501 55.804C145.813 56.324 145.969 56.932 145.969 57.628C145.969 58.324 145.813 58.936 145.501 59.464C145.197 59.984 144.777 60.384 144.241 60.664C143.705 60.944 143.101 61.084 142.429 61.084ZM142.429 59.044C142.757 59.044 143.029 58.924 143.245 58.684C143.469 58.436 143.581 58.084 143.581 57.628C143.581 57.172 143.469 56.824 143.245 56.584C143.029 56.344 142.761 56.224 142.441 56.224C142.121 56.224 141.853 56.344 141.637 56.584C141.421 56.824 141.313 57.172 141.313 57.628C141.313 58.092 141.417 58.444 141.625 58.684C141.833 58.924 142.101 59.044 142.429 59.044ZM150.154 58.78L151.414 54.268H153.922L151.606 61H148.678L146.362 54.268H148.87L150.154 58.78ZM161.151 57.556C161.151 57.74 161.139 57.924 161.115 58.108H156.663C156.687 58.476 156.787 58.752 156.963 58.936C157.147 59.112 157.379 59.2 157.659 59.2C158.051 59.2 158.331 59.024 158.499 58.672H161.007C160.903 59.136 160.699 59.552 160.395 59.92C160.099 60.28 159.723 60.564 159.267 60.772C158.811 60.98 158.307 61.084 157.755 61.084C157.091 61.084 156.499 60.944 155.979 60.664C155.467 60.384 155.063 59.984 154.767 59.464C154.479 58.944 154.335 58.332 154.335 57.628C154.335 56.924 154.479 56.316 154.767 55.804C155.055 55.284 155.455 54.884 155.967 54.604C156.487 54.324 157.083 54.184 157.755 54.184C158.419 54.184 159.007 54.32 159.519 54.592C160.031 54.864 160.431 55.256 160.719 55.768C161.007 56.272 161.151 56.868 161.151 57.556ZM158.751 56.968C158.751 56.68 158.655 56.456 158.463 56.296C158.271 56.128 158.031 56.044 157.743 56.044C157.455 56.044 157.219 56.124 157.035 56.284C156.851 56.436 156.731 56.664 156.675 56.968H158.751ZM164.465 55.456C164.729 55.072 165.049 54.768 165.425 54.544C165.801 54.32 166.205 54.208 166.637 54.208V56.716H165.977C165.465 56.716 165.085 56.816 164.837 57.016C164.589 57.216 164.465 57.564 164.465 58.06V61H162.113V54.268H164.465V55.456ZM168.621 61.096C168.205 61.096 167.869 60.984 167.613 60.76C167.365 60.528 167.241 60.236 167.241 59.884C167.241 59.532 167.365 59.24 167.613 59.008C167.869 58.776 168.205 58.66 168.621 58.66C169.029 58.66 169.357 58.776 169.605 59.008C169.861 59.24 169.989 59.532 169.989 59.884C169.989 60.228 169.861 60.516 169.605 60.748C169.357 60.98 169.029 61.096 168.621 61.096Z" fill="black"/>
</svg>
